<?xml version="1.0" encoding="UTF-8"?>
<svg width="24px" height="24px" viewBox="0 0 24 24" version="1.1" xmlns="http://www.w3.org/2000/svg" xmlns:xlink="http://www.w3.org/1999/xlink">
    <!-- Generator: Sketch 53.2 (72643) - https://sketchapp.com -->
    <title>icon/搜索</title>
    <desc>Created with Sketch.</desc>
    <g id="icon/搜索" stroke="none" stroke-width="1" fill="none" fill-rule="evenodd">
        <path d="M21.765625,20.6272321 L17.1741071,16.0379464 C18.4040179,14.5535714 19.1428571,12.6495536 19.1428571,10.5714286 C19.1428571,5.83705357 15.3058036,2 10.5714286,2 C5.83705357,2 2,5.83705357 2,10.5714286 C2,15.3058036 5.83705357,19.1428571 10.5714286,19.1428571 C12.6495536,19.1428571 14.5535714,18.4040179 16.0379464,17.1741071 L20.6294643,21.765625 C20.7857143,21.921875 20.9910714,22 21.1986607,22 C21.40625,22 21.609375,21.921875 21.7678571,21.765625 C22.078125,21.4508929 22.078125,20.9419643 21.765625,20.6272321 Z M13.28125,16.9888393 C12.4241071,17.3526786 11.5133929,17.5357143 10.5714286,17.5357143 C9.62946429,17.5357143 8.71875,17.3526786 7.86160714,16.9888393 C7.03348214,16.6383929 6.28794643,16.1361607 5.64732143,15.4955357 C5.00669643,14.8549107 4.50446429,14.109375 4.15401786,13.28125 C3.79017857,12.4241071 3.60714286,11.5133929 3.60714286,10.5714286 C3.60714286,9.62946429 3.79017857,8.71875 4.15401786,7.86160714 C4.50446429,7.03348214 5.00669643,6.28794643 5.64732143,5.64732143 C6.28794643,5.00669643 7.03348214,4.50446429 7.86160714,4.15401786 C8.71875,3.79017857 9.62946429,3.60714286 10.5714286,3.60714286 C11.5133929,3.60714286 12.4241071,3.79017857 13.28125,4.15401786 C14.109375,4.50446429 14.8549107,5.00669643 15.4955357,5.64732143 C16.1361607,6.28794643 16.6383929,7.03348214 16.9888393,7.86160714 C17.3526786,8.71875 17.5357143,9.62946429 17.5357143,10.5714286 C17.5357143,11.5133929 17.3526786,12.4241071 16.9888393,13.28125 C16.6383929,14.109375 16.1361607,14.8549107 15.4955357,15.4955357 C14.8549107,16.1361607 14.1116071,16.6383929 13.28125,16.9888393 Z" id="Shape" fill="#3E4A59" fill-rule="nonzero"></path>
    </g>
</svg>