<?xml version="1.0" encoding="UTF-8"?>
<svg width="36px" height="36px" viewBox="0 0 36 36" version="1.1" xmlns="http://www.w3.org/2000/svg" xmlns:xlink="http://www.w3.org/1999/xlink">
    <!-- Generator: Sketch 53.2 (72643) - https://sketchapp.com -->
    <title>icon/账号</title>
    <desc>Created with Sketch.</desc>
    <g id="icon/账号" stroke="none" stroke-width="1" fill="none" fill-rule="evenodd">
        <g id="Group-3" transform="translate(4.000000, 2.000000)" fill="#AAAAAA">
            <path d="M10.5929984,18.6347969 C4.52815655,18.6347969 0,22.724777 0,28.6645253 L0,29.3037593 C0,32.4084531 4.85316033,32.4084531 10.9963103,32.4084531 L17.5225219,32.4084531 C23.4236648,32.4084531 28.5195804,32.4084531 28.5195804,29.3037593 L28.5195804,28.6645253 C28.5195804,22.7257745 23.9906258,18.6347969 17.926582,18.6347969 L10.5929984,18.6347969 Z M13.9330656,17.0720256 C18.7347521,17.0720256 22.6429774,13.2429064 22.6429774,8.53553894 C22.6429774,3.82886972 18.7349516,0 13.9330656,0 C9.13112981,0 5.22390206,3.82986728 5.22390206,8.53553894 C5.22390206,13.2421583 9.13112981,17.0720256 13.9330656,17.0720256 L13.9330656,17.0720256 Z" id="Page-1"></path>
        </g>
    </g>
</svg>