<?xml version="1.0" encoding="UTF-8"?>
<svg width="12px" height="12px" viewBox="0 0 12 12" version="1.1" xmlns="http://www.w3.org/2000/svg" xmlns:xlink="http://www.w3.org/1999/xlink">
    <!-- Generator: Sketch 53.2 (72643) - https://sketchapp.com -->
    <title>icon/收起</title>
    <desc>Created with Sketch.</desc>
    <g id="icon/收起" stroke="none" stroke-width="1" fill="none" fill-rule="evenodd">
        <g id="icon_retract" transform="translate(2.000000, 2.000000)" fill="#A9BACF">
            <path d="M5.07334169,6.28565948 L0.250954963,1.46328223 C-0.0836516542,1.12866434 -0.0836516542,0.58552551 0.250954963,0.250963421 C0.58522675,-0.0836544736 1.12866674,-0.0836544736 1.46297201,0.250963421 L6.28566008,5.07364201 L6.28566008,1.41527878 C6.28566008,0.94926245 6.66338161,0.571228271 7.12971029,0.571228271 L7.15626229,0.571228271 C7.62227846,0.571228271 8,0.94926245 8,1.41527878 L8,7.1416969 C8,7.27541682 7.97001041,7.40084412 7.91629254,7.51284474 C7.8742714,7.60000098 7.81885706,7.67912129 7.74883298,7.7491454 C7.66996939,7.82800901 7.57942024,7.88826724 7.48254281,7.92998706 C7.37625666,7.97541232 7.2622471,8 7.14282446,8 L1.41528108,8 C0.949264909,8 0.571532209,7.62227833 0.571532209,7.156262 L0.571532209,7.12940864 C0.571532209,6.66339231 0.949264909,6.28565948 1.41528108,6.28565948 L5.07334169,6.28565948 Z" id="Fill-1"></path>
        </g>
    </g>
</svg>