<?xml version="1.0" encoding="UTF-8"?>
<svg width="14px" height="14px" viewBox="0 0 14 14" version="1.1" xmlns="http://www.w3.org/2000/svg" xmlns:xlink="http://www.w3.org/1999/xlink">
    <!-- Generator: Sketch 52.2 (67145) - http://www.bohemiancoding.com/sketch -->
    <title>icon/关闭弹窗</title>
    <desc>Created with Sketch.</desc>
    <g id="icon/关闭弹窗" stroke="none" stroke-width="1" fill="none" fill-rule="evenodd">
        <path d="M13.6452177,11.9317593 C14.1182608,12.4048 14.1182608,13.1721114 13.6452177,13.6451521 C13.4085616,13.8818071 13.098674,14 12.7885172,14 C12.4783604,14 12.1684728,13.8818071 11.9318167,13.6451521 L7,8.7133592 L2.06818335,13.6451521 C1.83152723,13.8818071 1.52163963,14 1.2114828,14 C0.901325974,14 0.591438379,13.8818071 0.354782258,13.6451521 C-0.118260753,13.1721114 -0.118260753,12.4048 0.354782258,11.9317593 L5.28659891,6.99996635 L0.354782258,2.0681734 C-0.118260753,1.59513267 -0.118260753,0.827821288 0.354782258,0.354780552 C0.828094501,-0.118260184 1.5948711,-0.118260184 2.06818335,0.354780552 L7,5.28657349 L11.9318167,0.354780552 C12.4051289,-0.118260184 13.1719055,-0.118260184 13.6452177,0.354780552 C14.1182608,0.827821288 14.1182608,1.59513267 13.6452177,2.0681734 L8.71340109,6.99996635 L13.6452177,11.9317593 Z" id="cross-copy" fill="#77808A"></path>
    </g>
</svg>