<?xml version="1.0" encoding="UTF-8"?>
<svg width="12px" height="12px" viewBox="0 0 12 12" version="1.1" xmlns="http://www.w3.org/2000/svg" xmlns:xlink="http://www.w3.org/1999/xlink">
    <!-- Generator: Sketch 53.2 (72643) - https://sketchapp.com -->
    <title>icon/更多</title>
    <desc>Created with Sketch.</desc>
    <g id="icon/更多" stroke="none" stroke-width="1" fill="none" fill-rule="evenodd">
        <path d="M7.07334169,8.28565948 L2.25095496,3.46328223 C1.91634835,3.12866434 1.91634835,2.58552551 2.25095496,2.25096342 C2.58522675,1.91634553 3.12866674,1.91634553 3.46297201,2.25096342 L8.28566008,7.07364201 L8.28566008,3.41527878 C8.28566008,2.94926245 8.66338161,2.57122827 9.12971029,2.57122827 L9.15626229,2.57122827 C9.62227846,2.57122827 10,2.94926245 10,3.41527878 L10,9.1416969 C10,9.27541682 9.97001041,9.40084412 9.91629254,9.51284474 C9.8742714,9.60000098 9.81885706,9.67912129 9.74883298,9.7491454 C9.66996939,9.82800901 9.57942024,9.88826724 9.48254281,9.92998706 C9.37625666,9.97541232 9.2622471,10 9.14282446,10 L3.41528108,10 C2.94926491,10 2.57153221,9.62227833 2.57153221,9.156262 L2.57153221,9.12940864 C2.57153221,8.66339231 2.94926491,8.28565948 3.41528108,8.28565948 L7.07334169,8.28565948 Z" id="Fill-1" fill="#2E9AE2" transform="translate(6.000000, 6.000000) rotate(-45.000000) translate(-6.000000, -6.000000) "></path>
    </g>
</svg>