<?xml version="1.0" encoding="UTF-8"?>
<svg width="12px" height="12px" viewBox="0 0 12 12" version="1.1" xmlns="http://www.w3.org/2000/svg" xmlns:xlink="http://www.w3.org/1999/xlink">
    <!-- Generator: Sketch 53.2 (72643) - https://sketchapp.com -->
    <title>icon/失败</title>
    <desc>Created with Sketch.</desc>
    <g id="icon/失败" stroke="none" stroke-width="1" fill="none" fill-rule="evenodd">
        <g id="分组-52">
            <g>
                <path d="M5.9999665,0 C2.68643368,0 0,2.68643368 0,5.9999665 C0,9.31349933 2.68643368,12 5.9999665,12 C9.31349933,12 12,9.31349933 12,5.9999665 C12,2.68643368 9.31349933,0 5.9999665,0 Z" id="Path" fill="#FF4958"></path>
                <path d="M5.98596196,1.98214286 C6.43061694,1.98214286 6.70524947,2.41454374 6.66590984,2.80472568 L6.16900302,7.33928571 L5.77674178,7.33928571 L5.33219322,2.80472568 C5.30573031,2.42492685 5.56734422,1.98214286 5.98596196,1.98214286 Z" id="路径" fill="#FFFFFF"></path>
                <path d="M6.0000162,9.34821429 C5.62926284,9.34821429 5.33035714,9.04917883 5.33035714,8.67855521 C5.33035714,8.30806134 5.62926284,8.00892857 6.0000162,8.00892857 C6.37060737,8.00892857 6.66964281,8.30806134 6.66964281,8.67855521 C6.66977256,9.04917883 6.37086686,9.34821429 6.0000162,9.34821429 Z" id="路径" fill="#FFFFFF"></path>
            </g>
        </g>
    </g>
</svg>