<?xml version="1.0" encoding="UTF-8"?>
<svg width="12px" height="12px" viewBox="0 0 12 12" version="1.1" xmlns="http://www.w3.org/2000/svg" xmlns:xlink="http://www.w3.org/1999/xlink">
    <!-- Generator: Sketch 59.1 (86144) - https://sketch.com -->
    <title>icon/目录未完成</title>
    <desc>Created with Sketch.</desc>
    <g id="icon/目录未完成" stroke="none" stroke-width="1" fill="none" fill-rule="evenodd">
        <g id="icon_目录完成">
            <path d="M6,0 C9.3137085,-6.08718376e-16 12,2.6862915 12,6 C12,9.3137085 9.3137085,12 6,12 C2.6862915,12 4.05812251e-16,9.3137085 0,6 C-4.05812251e-16,2.6862915 2.6862915,6.08718376e-16 6,0 Z M6.00002419,8.02678571 C5.44636585,8.02678571 5,8.47349065 5,9.02676149 C5,9.5802261 5.44636585,10.0267857 6.00002419,10.0267857 C6.55382785,10.0267857 7.00019369,9.5802261 7,9.02676149 C7,8.47349065 6.55344033,8.02678571 6.00002419,8.02678571 Z M5.97903653,1.6 C5.35390071,1.6 4.96322393,2.09591807 5.00274188,2.52129276 L5.00274188,2.52129276 L5.66660105,7.6 L6.25237785,7.6 L6.99442535,2.52129276 C7.05317255,2.08428899 6.64305463,1.6 5.97903653,1.6 Z" id="形状结合" fill="#FF5C47"></path>
            <g id="分组-10" transform="translate(5.000000, 1.000000)">
                <g id="编组"></g>
            </g>
        </g>
    </g>
</svg>