<?xml version="1.0" encoding="UTF-8"?>
<svg width="36px" height="36px" viewBox="0 0 36 36" version="1.1" xmlns="http://www.w3.org/2000/svg" xmlns:xlink="http://www.w3.org/1999/xlink">
    <!-- Generator: Sketch 53.2 (72643) - https://sketchapp.com -->
    <title>icon/密码</title>
    <desc>Created with Sketch.</desc>
    <g id="icon/密码" stroke="none" stroke-width="1" fill="none" fill-rule="evenodd">
        <g id="Group-4" transform="translate(4.000000, 2.000000)" fill="#AAAAAA">
            <path d="M21.0257314,9.41372024 C21.0257314,5.74618937 17.8744093,2.75991977 14,2.75991977 C10.1238529,2.75991977 6.97407108,5.74788769 6.97407108,9.41372024 L6.97407108,12.6281565 L21.0257314,12.6281565 L21.0257314,9.41372024 Z M12.5924919,22.365386 L12.5924919,25.8694047 C12.5924919,26.5924919 13.2250549,27.1943668 14,27.1943668 C14.7732467,27.1943668 15.4008729,26.5924919 15.4008729,25.8694047 L15.4008729,22.365386 C16.2438295,21.9139502 16.8083415,21.0566171 16.8083415,20.0729373 C16.8083415,18.6040528 15.5481918,17.4069778 14,17.4069778 C12.4533485,17.4069778 11.1899207,18.6040528 11.1899207,20.0729373 C11.1899207,21.0566171 11.7545907,21.9124098 12.5924919,22.365386 L12.5924919,22.365386 Z M24.659217,32.294999 L3.34062499,32.294999 C1.50285074,32.294999 0,30.8908875 0,29.1469155 L0,15.77624 C0,14.032268 1.48341886,12.6296968 3.34062499,12.6296968 L4.16403127,12.6296968 L4.16403127,9.50906285 C4.16403127,4.10095664 8.57242241,0 14,0 C19.4226406,0 23.8342704,4.10095664 23.8342704,9.50906285 L23.8342704,12.6411111 L24.659217,12.6411111 C26.4986896,12.6411111 28,14.0484612 28,15.7924332 L28,29.1631088 C28,30.8908875 26.4986896,32.294999 24.659217,32.294999 L24.659217,32.294999 Z" id="Page-1"></path>
        </g>
    </g>
</svg>